<?xml version="1.0" encoding="utf-8"?>
<!-- Generator: Adobe Illustrator 24.1.2, SVG Export Plug-In . SVG Version: 6.00 Build 0)  -->
<svg version="1.1" id="Layer_1" xmlns="http://www.w3.org/2000/svg" xmlns:xlink="http://www.w3.org/1999/xlink" x="0px" y="0px"
	 viewBox="0 0 500 119" style="enable-background:new 0 0 500 119;" xml:space="preserve">
<style type="text/css">
	.st0{fill:#FFFFFF;}
</style>
<g>
	<g>
		<path class="st0" d="M121,91c2.2-3.3,3.3-7.2,3.3-11.7c0-4.5-1.1-8.5-3.2-11.8c-2.2-3.3-5.2-5.9-9.2-7.7c-4-1.8-8.7-2.7-14.1-2.7
			H71.3v61.1h14.1v-17h12.3h0.7l11.8,17h15.2l-13.7-19.6C115.7,96.8,118.8,94.3,121,91z M106.7,87.1c-2.2,1.9-5.4,2.8-9.7,2.8H85.4
			V68.6H97c4.2,0,7.5,0.9,9.7,2.7c2.2,1.8,3.3,4.5,3.3,7.9C110,82.6,108.9,85.2,106.7,87.1z"/>
	</g>
	<g>
		<path class="st0" d="M183.2,60.1c-5.1-2.7-10.8-4.1-17.1-4.1c-6.3,0-12.1,1.4-17.1,4.1c-5.1,2.7-9.1,6.5-12,11.3
			c-2.9,4.8-4.3,10.2-4.3,16.2c0,6,1.4,11.4,4.3,16.2c2.9,4.8,6.9,8.6,12,11.3c5.1,2.7,10.8,4.1,17.1,4.1c6.3,0,12-1.4,17.1-4.1
			c5.1-2.7,9-6.5,12-11.3c2.9-4.8,4.4-10.2,4.4-16.2c0-6-1.5-11.4-4.4-16.2C192.3,66.6,188.3,62.9,183.2,60.1z M182.7,97.7
			c-1.7,3-3.9,5.3-6.9,6.9c-2.9,1.7-6.2,2.5-9.8,2.5c-3.6,0-6.9-0.8-9.8-2.5c-2.9-1.7-5.2-4-6.9-6.9c-1.7-3-2.5-6.3-2.5-10.1
			c0-3.8,0.8-7.2,2.5-10.1c1.7-3,3.9-5.3,6.9-6.9c2.9-1.7,6.2-2.5,9.8-2.5c3.6,0,6.9,0.8,9.8,2.5c2.9,1.7,5.2,4,6.9,6.9
			c1.7,3,2.5,6.3,2.5,10.1C185.2,91.4,184.4,94.8,182.7,97.7z"/>
	</g>
	<g>
		<path class="st0" d="M349.2,59.8c-4-1.8-8.7-2.7-14.1-2.7h-26.4v61.1h14.1v-16.8h12.3c5.4,0,10.1-0.9,14.1-2.7
			c4-1.8,7.1-4.3,9.2-7.7c2.2-3.3,3.2-7.3,3.2-11.7c0-4.5-1.1-8.5-3.2-11.8C356.2,64.1,353.2,61.6,349.2,59.8z M344,87.1
			c-2.2,1.8-5.4,2.7-9.7,2.7h-11.5V68.6h11.5c4.2,0,7.5,0.9,9.7,2.7c2.2,1.8,3.3,4.5,3.3,7.9C347.3,82.6,346.2,85.2,344,87.1z"/>
	</g>
	<g>
		<rect x="371.4" y="57.1" class="st0" width="14.1" height="61.1"/>
	</g>
	<g>
		<polygon class="st0" points="412,57.1 397.8,57.1 397.8,118.2 442.6,118.2 442.6,106.7 412,106.7 		"/>
	</g>
	<g>
		<polygon class="st0" points="466.7,106.8 466.7,92.7 494.6,92.7 494.6,81.7 466.7,81.7 466.7,68.4 498.9,68.4 498.9,57.1 
			452.7,57.1 452.7,118.2 500,118.2 500,106.8 		"/>
	</g>
	<g>
		<polygon class="st0" points="324.6,39.8 310.1,0.3 276.8,26 293.8,30.9 271.5,100.4 257.5,57.1 244.5,57.1 230.1,100 223.4,79.2 
			208.8,79.2 221.7,118.2 236.8,118.2 250.6,76.8 264.1,118.2 279.3,118.2 306.1,34.4 		"/>
	</g>
	<g>
		<path class="st0" d="M23.9,70.5c3-1.6,6.5-2.4,10.4-2.4c6.2,0,11.4,2.3,15.8,6.9l9.1-8.4c-3-3.4-6.6-6.1-11-7.9
			C43.8,56.9,39,56,33.6,56c-6.4,0-12.2,1.4-17.3,4.1c-5.1,2.7-9.1,6.5-12,11.3S0,81.6,0,87.6c0,6.1,1.4,11.5,4.3,16.3
			c2.9,4.8,6.9,8.6,11.9,11.3c5.1,2.7,10.8,4.1,17.1,4.1c4.4,0,8.8-0.7,13.2-2c4.4-1.3,8.2-3.3,11.5-5.8V93.6v-6v-5.5H29.6v11.5
			h15.5v10.9c-3.3,1.7-6.9,2.6-11,2.6c-3.8,0-7.3-0.8-10.3-2.5c-3-1.7-5.3-4-7-6.9c-1.7-3-2.5-6.3-2.5-10.1c0-3.8,0.8-7.2,2.5-10.2
			C18.5,74.4,20.9,72.1,23.9,70.5z"/>
	</g>
</g>
</svg>
